<svg width="131" height="34" viewBox="0 0 131 34" fill="none" xmlns="http://www.w3.org/2000/svg">
<path d="M3.61339 10.8218L0.0957031 8.81862C0.242778 8.4324 0.516899 8.10796 0.872826 7.89885C1.63276 7.48547 14.5722 0.23061 14.5722 0.23061C15.1122 -0.07687 15.7739 -0.07687 16.3138 0.23061L27.3603 6.37967C27.7482 6.65389 28.0044 7.07763 28.0673 7.54898C28.1303 8.02034 27.9943 8.49667 27.6921 8.86341C27.1169 9.50238 26.178 9.6601 25.4261 9.24406L16.1161 4.05612C15.6948 3.82188 15.1827 3.82188 14.7613 4.05612C11.2024 6.04896 7.95977 7.87301 4.40082 9.86586C4.0229 10.0682 3.73993 10.4117 3.61339 10.8218Z" fill="url(#paint0_linear_1_543)"/>
<path d="M3.61302 10.8235C3.55139 10.9885 3.52389 11.1643 3.53222 11.3402V22.6789C3.52129 23.2946 3.85883 23.8636 4.4039 24.1482C5.35123 24.6856 14.6268 29.8442 14.6268 29.8442C14.8867 29.9872 15.178 30.063 15.4745 30.0647V33.9987C15.1791 33.9903 14.8895 33.9155 14.6268 33.78L0.872463 26.1152C0.321486 25.8369 -0.0184985 25.2638 0.000778662 24.646V9.36977C-0.00145353 9.18237 0.0305957 8.99614 0.09534 8.82031L3.61302 10.8235Z" fill="url(#paint1_linear_1_543)"/>
<path d="M15.4746 30.063C15.6416 30.063 15.8077 30.0392 15.968 29.9924C16.0919 29.9559 16.2113 29.9056 16.3239 29.8425L26.5469 24.1464C26.8206 23.9928 27.0471 23.767 27.2019 23.4936C27.3423 23.2444 27.4169 22.9634 27.4186 22.6772V18.8104C27.4142 18.192 27.0734 17.6253 26.5297 17.3325C25.689 16.8744 24.8603 17.3325 24.8207 17.3566L16.3411 22.2983C16.2134 22.3733 16.0764 22.4312 15.9337 22.4705C15.7842 22.5125 15.6298 22.5345 15.4746 22.536V18.5968C15.6197 18.5957 15.7641 18.5766 15.9044 18.5399C16.0591 18.4996 16.2072 18.4375 16.3446 18.3556L28.3487 11.2748C28.889 10.9538 29.5601 10.9499 30.1041 11.2644C30.5616 11.5367 30.8732 12 30.9534 12.527V24.6459C30.9524 24.9495 30.8692 25.2472 30.7127 25.5072C30.5584 25.7604 30.3417 25.9698 30.0835 26.1152C25.4987 28.669 20.9139 31.2239 16.3291 33.78C16.204 33.8487 16.0713 33.9025 15.9337 33.9402C15.7856 33.9796 15.633 33.9993 15.4798 33.9987L15.4746 30.063Z" fill="url(#paint2_linear_1_543)"/>
<path d="M15.4737 18.5982C15.3366 18.6003 15.1997 18.5853 15.0662 18.5534C14.9006 18.5168 14.7413 18.4559 14.5934 18.3725L10.5909 16.0989L10.5496 16.0765C9.38912 15.4444 7.9707 16.2677 7.9707 17.5716C7.97329 18.1872 8.30719 18.7535 8.84411 19.0529L14.6089 22.3117C14.7527 22.3899 14.9066 22.4479 15.0662 22.484C15.2019 22.5167 15.341 22.5329 15.4806 22.5322L15.4737 18.5982Z" fill="url(#paint3_linear_1_543)"/>
<path fill-rule="evenodd" clip-rule="evenodd" d="M54.4869 16.6232H60.9612C61.2986 16.6232 61.572 16.8961 61.572 17.2329C61.572 18.6196 61.407 19.847 61.0769 20.9149C60.7549 21.9032 60.2115 22.8277 59.4467 23.6884C57.7158 25.6172 55.514 26.5815 52.8412 26.5815C50.2328 26.5815 47.9988 25.649 46.1391 23.7841C44.2794 21.9112 43.3496 19.6637 43.3496 17.0416C43.3496 14.3637 44.2955 12.0923 46.1874 10.2273C48.0793 8.35442 50.3817 7.41797 53.0948 7.41797C54.5519 7.41797 55.9125 7.71285 57.1764 8.30262C58.3529 8.95885 59.3997 9.76249 60.3169 10.7135C60.5541 10.9595 60.5466 11.3508 60.3002 11.5876L60.2973 11.5904L59.2234 12.6088C58.9754 12.8439 58.5834 12.8338 58.3478 12.5863C58.3403 12.5784 58.333 12.5703 58.3259 12.562C56.8923 10.886 55.1647 10.048 53.1431 10.048C51.1707 10.048 49.5163 10.7215 48.1799 12.0684C46.8435 13.3914 46.1754 15.0491 46.1754 17.0416C46.1754 19.0978 46.92 20.7914 48.4094 22.1224C49.8021 23.3577 51.3116 23.9754 52.9378 23.9754C54.3225 23.9754 55.0132 23.9371 56.7386 22.7904C57.7135 22.1425 58.2879 21.1938 58.4618 19.9445C58.5089 19.6064 58.2725 19.2941 57.9337 19.2471C57.9055 19.2432 57.877 19.2413 57.8485 19.2413H54.4869C54.1449 19.2413 53.8676 18.9645 53.8676 18.6231V17.2413C53.8676 16.8999 54.1449 16.6232 54.4869 16.6232ZM73.8804 14.5923H75.3709C75.713 14.5923 75.9902 14.8691 75.9902 15.2105V25.6181C75.9902 25.9595 75.713 26.2363 75.3709 26.2363H73.8804C73.5383 26.2363 73.2611 25.9595 73.2611 25.6181V25.0169C72.142 26.053 70.9385 26.571 69.6504 26.571C68.0242 26.571 66.6798 25.9892 65.6171 24.8256C64.5625 23.6381 64.0352 22.1557 64.0352 20.3784C64.0352 18.633 64.5625 17.1785 65.6171 16.0149C66.6717 14.8513 67.992 14.2695 69.578 14.2695C70.9466 14.2695 72.1743 14.8274 73.2611 15.9432V15.2105C73.2611 14.8691 73.5383 14.5923 73.8804 14.5923ZM129.43 14.5923H127.939C127.597 14.5923 127.32 14.8691 127.32 15.2105V15.9432C126.233 14.8274 125.005 14.2695 123.637 14.2695C122.051 14.2695 120.73 14.8513 119.676 16.0149C118.621 17.1785 118.094 18.633 118.094 20.3784C118.094 22.1557 118.621 23.6381 119.676 24.8256C120.738 25.9892 122.083 26.571 123.709 26.571C124.997 26.571 126.201 26.053 127.32 25.0169V25.6181C127.32 25.9595 127.597 26.2363 127.939 26.2363H129.43C129.772 26.2363 130.049 25.9595 130.049 25.6181V15.2105C130.049 14.8691 129.772 14.5923 129.43 14.5923ZM66.8125 20.3774C66.8125 21.4932 67.1144 22.4017 67.7182 23.1031C68.3381 23.8124 69.119 24.1671 70.0609 24.1671C71.0672 24.1671 71.8803 23.8244 72.5002 23.1389C73.1201 22.4296 73.43 21.529 73.43 20.4372C73.43 19.3453 73.1201 18.4447 72.5002 17.7354C71.8803 17.042 71.0753 16.6953 70.085 16.6953C69.1512 16.6953 68.3703 17.046 67.7423 17.7473C67.1224 18.4567 66.8125 19.3333 66.8125 20.3774ZM121.777 23.1031C121.173 22.4017 120.871 21.4932 120.871 20.3774C120.871 19.3333 121.181 18.4567 121.801 17.7473C122.429 17.046 123.21 16.6953 124.144 16.6953C125.134 16.6953 125.939 17.042 126.559 17.7354C127.179 18.4447 127.489 19.3453 127.489 20.4372C127.489 21.529 127.179 22.4296 126.559 23.1389C125.939 23.8244 125.126 24.1671 124.119 24.1671C123.178 24.1671 122.397 23.8124 121.777 23.1031ZM80.0392 14.5923H81.5177C81.8597 14.5923 82.137 14.8691 82.137 15.2105V15.6682C82.6603 15.1263 83.1071 14.7597 83.4774 14.5684C83.8719 14.3692 84.367 14.2695 84.9627 14.2695C86.2911 14.2695 87.3417 14.8434 88.1145 15.991C88.9679 14.8434 90.1231 14.2695 91.5803 14.2695C94.2289 14.2695 95.5532 15.8595 95.5532 19.0395V25.6181C95.5532 25.9595 95.276 26.2363 94.9339 26.2363H93.4434C93.1013 26.2363 92.8241 25.9595 92.8241 25.6181V19.7687C92.8241 18.6529 92.6872 17.8639 92.4135 17.4017C92.1317 16.9315 91.6688 16.6964 91.0248 16.6964C90.2761 16.6964 89.7307 16.9753 89.3885 17.5332C89.0464 18.0911 88.8753 18.9877 88.8753 20.223V25.6181C88.8753 25.9595 88.598 26.2363 88.256 26.2363H86.7654C86.4234 26.2363 86.1462 25.9595 86.1462 25.6181V19.8046C86.1462 17.7324 85.5424 16.6964 84.3348 16.6964C83.57 16.6964 83.0125 16.9793 82.6623 17.5451C82.3121 18.111 82.137 19.0036 82.137 20.223V25.6181C82.137 25.9595 81.8597 26.2363 81.5177 26.2363H80.0392C79.6972 26.2363 79.4199 25.9595 79.4199 25.6181V15.2105C79.4199 14.8691 79.6972 14.5923 80.0392 14.5923ZM101.08 14.5923H99.6017C99.2597 14.5923 98.9824 14.8691 98.9824 15.2105V25.6181C98.9824 25.9595 99.2597 26.2363 99.6017 26.2363H101.08C101.422 26.2363 101.699 25.9595 101.699 25.6181V20.223C101.699 19.0036 101.875 18.111 102.225 17.5451C102.575 16.9793 103.132 16.6964 103.897 16.6964C105.105 16.6964 105.709 17.7324 105.709 19.8046V25.6181C105.709 25.9595 105.986 26.2363 106.328 26.2363H107.819C108.161 26.2363 108.438 25.9595 108.438 25.6181V20.223C108.438 18.9877 108.609 18.0911 108.951 17.5332C109.293 16.9753 109.839 16.6964 110.587 16.6964C111.231 16.6964 111.694 16.9315 111.976 17.4017C112.25 17.8639 112.387 18.6529 112.387 19.7687V25.6181C112.387 25.9595 112.664 26.2363 113.006 26.2363H114.496C114.838 26.2363 115.116 25.9595 115.116 25.6181V19.0395C115.116 15.8595 113.791 14.2695 111.143 14.2695C109.686 14.2695 108.53 14.8434 107.677 15.991C106.904 14.8434 105.854 14.2695 104.525 14.2695C103.929 14.2695 103.434 14.3692 103.04 14.5684C102.67 14.7597 102.223 15.1263 101.699 15.6682V15.2105C101.699 14.8691 101.422 14.5923 101.08 14.5923Z" fill="#0E51C1"/>
<defs>
<linearGradient id="paint0_linear_1_543" x1="0.0957031" y1="10.8232" x2="28.0859" y2="10.8232" gradientUnits="userSpaceOnUse">
<stop stop-color="#154FFF"/>
<stop offset="0.37" stop-color="#0C77FF"/>
<stop offset="0.78" stop-color="#039DFF"/>
<stop offset="1" stop-color="#00ACFF"/>
</linearGradient>
<linearGradient id="paint1_linear_1_543" x1="21.4612" y1="16.1804" x2="-1.37934" y2="7.75385" gradientUnits="userSpaceOnUse">
<stop stop-color="#174ABC"/>
<stop offset="0.03" stop-color="#164DC0"/>
<stop offset="0.37" stop-color="#066DE6"/>
<stop offset="0.54" stop-color="#0079F5"/>
<stop offset="1" stop-color="#153EE6"/>
</linearGradient>
<linearGradient id="paint2_linear_1_543" x1="15.4746" y1="33.9935" x2="30.9483" y2="33.9935" gradientUnits="userSpaceOnUse">
<stop stop-color="#172B9C"/>
<stop offset="0.357132" stop-color="#0E51C1"/>
<stop offset="0.78" stop-color="#0477E7"/>
<stop offset="1" stop-color="#0086F5"/>
</linearGradient>
<linearGradient id="paint3_linear_1_543" x1="30.9673" y1="18.4684" x2="14.2691" y2="-2.18885" gradientUnits="userSpaceOnUse">
<stop offset="0.27" stop-color="#174ABC"/>
<stop offset="0.37" stop-color="#1156CA"/>
<stop offset="0.56" stop-color="#0275F0"/>
<stop offset="0.58" stop-color="#0079F5"/>
<stop offset="0.82" stop-color="#1545E6"/>
</linearGradient>
</defs>
</svg>
