<svg width="260" height="260" viewBox="0 0 260 260" fill="none" xmlns="http://www.w3.org/2000/svg">
<rect x="0.5" y="0.5" width="259" height="259" fill="white" stroke="#EEEEEE"/>
<rect x="35" y="90" width="189" height="81" fill="white"/>
<path d="M68.088 122.822L64.5703 120.819C64.7174 120.432 64.9915 120.108 65.3474 119.899C66.1074 119.485 79.0468 112.231 79.0468 112.231C79.5868 111.923 80.2485 111.923 80.7884 112.231L91.8349 118.38C92.2228 118.654 92.479 119.078 92.5419 119.549C92.6049 120.02 92.469 120.497 92.1668 120.863C91.5915 121.502 90.6526 121.66 89.9007 121.244L80.5907 116.056C80.1694 115.822 79.6573 115.822 79.2359 116.056C75.677 118.049 72.4344 119.873 68.8754 121.866C68.4975 122.068 68.2145 122.412 68.088 122.822Z" fill="#B3C1D6"/>
<path d="M68.0876 122.823C68.026 122.988 67.9985 123.164 68.0068 123.34V134.679C67.9959 135.295 68.3334 135.864 68.8785 136.148C69.8258 136.686 79.1015 141.844 79.1015 141.844C79.3613 141.987 79.6526 142.063 79.9491 142.065V145.999C79.6537 145.99 79.3641 145.916 79.1015 145.78L65.3471 138.115C64.7961 137.837 64.4561 137.264 64.4754 136.646V121.37C64.4732 121.182 64.5052 120.996 64.5699 120.82L68.0876 122.823Z" fill="#B3C1D6"/>
<path d="M79.9492 142.063C80.1162 142.063 80.2824 142.039 80.4427 141.992C80.5665 141.956 80.6859 141.906 80.7986 141.843L91.0215 136.146C91.2952 135.993 91.5217 135.767 91.6765 135.494C91.8169 135.244 91.8915 134.963 91.8932 134.677V130.81C91.8888 130.192 91.548 129.625 91.0043 129.333C90.1636 128.874 89.3349 129.333 89.2953 129.357L80.8157 134.298C80.688 134.373 80.551 134.431 80.4083 134.471C80.2588 134.513 80.1044 134.535 79.9492 134.536V130.597C80.0943 130.596 80.2387 130.577 80.379 130.54C80.5337 130.5 80.6819 130.438 80.8192 130.356L92.8233 123.275C93.3636 122.954 94.0347 122.95 94.5787 123.264C95.0362 123.537 95.3478 124 95.4281 124.527V136.646C95.427 136.95 95.3438 137.247 95.1874 137.507C95.033 137.76 94.8163 137.97 94.5581 138.115C89.9733 140.669 85.3885 143.224 80.8037 145.78C80.6786 145.849 80.5459 145.902 80.4083 145.94C80.2602 145.98 80.1076 145.999 79.9544 145.999L79.9492 142.063Z" fill="#B3C1D6"/>
<path d="M79.9483 130.598C79.8112 130.6 79.6743 130.585 79.5409 130.553C79.3752 130.517 79.2159 130.456 79.068 130.373L75.0655 128.099L75.0243 128.077C73.8637 127.444 72.4453 128.268 72.4453 129.572C72.4479 130.187 72.7818 130.754 73.3187 131.053L79.0835 134.312C79.2273 134.39 79.3812 134.448 79.5409 134.484C79.6765 134.517 79.8157 134.533 79.9552 134.532L79.9483 130.598Z" fill="#B3C1D6"/>
<path fill-rule="evenodd" clip-rule="evenodd" d="M118.962 128.623H125.436C125.773 128.623 126.047 128.896 126.047 129.233C126.047 130.62 125.882 131.847 125.552 132.915C125.229 133.903 124.686 134.828 123.921 135.688C122.19 137.617 119.989 138.582 117.316 138.582C114.707 138.582 112.473 137.649 110.614 135.784C108.754 133.911 107.824 131.664 107.824 129.042C107.824 126.364 108.77 124.092 110.662 122.227C112.554 120.354 114.856 119.418 117.569 119.418C119.027 119.418 120.387 119.713 121.651 120.303C122.828 120.959 123.874 121.762 124.792 122.714C125.029 122.959 125.021 123.351 124.775 123.588L124.772 123.59L123.698 124.609C123.45 124.844 123.058 124.834 122.822 124.586C122.815 124.578 122.808 124.57 122.8 124.562C121.367 122.886 119.639 122.048 117.618 122.048C115.645 122.048 113.991 122.721 112.655 124.068C111.318 125.391 110.65 127.049 110.65 129.042C110.65 131.098 111.395 132.791 112.884 134.122C114.277 135.358 115.786 135.975 117.412 135.975C118.797 135.975 119.488 135.937 121.213 134.79C122.188 134.142 122.763 133.194 122.936 131.945C122.984 131.606 122.747 131.294 122.408 131.247C122.38 131.243 122.352 131.241 122.323 131.241H118.962C118.62 131.241 118.342 130.964 118.342 130.623V129.241C118.342 128.9 118.62 128.623 118.962 128.623ZM138.355 126.592H139.846C140.188 126.592 140.465 126.869 140.465 127.21V137.618C140.465 137.96 140.188 138.236 139.846 138.236H138.355C138.013 138.236 137.736 137.96 137.736 137.618V137.017C136.617 138.053 135.413 138.571 134.125 138.571C132.499 138.571 131.154 137.989 130.092 136.826C129.037 135.638 128.51 134.156 128.51 132.378C128.51 130.633 129.037 129.179 130.092 128.015C131.146 126.851 132.467 126.27 134.053 126.27C135.421 126.27 136.649 126.827 137.736 127.943V127.21C137.736 126.869 138.013 126.592 138.355 126.592ZM193.904 126.592H192.414C192.072 126.592 191.794 126.869 191.794 127.21V127.943C190.707 126.827 189.48 126.27 188.111 126.27C186.525 126.27 185.205 126.851 184.15 128.015C183.096 129.179 182.568 130.633 182.568 132.378C182.568 134.156 183.096 135.638 184.15 136.826C185.213 137.989 186.557 138.571 188.184 138.571C189.472 138.571 190.675 138.053 191.794 137.017V137.618C191.794 137.96 192.072 138.236 192.414 138.236H193.904C194.246 138.236 194.523 137.96 194.523 137.618V127.21C194.523 126.869 194.246 126.592 193.904 126.592ZM131.287 132.377C131.287 133.493 131.589 134.402 132.193 135.103C132.813 135.812 133.594 136.167 134.536 136.167C135.542 136.167 136.355 135.824 136.975 135.139C137.595 134.43 137.905 133.529 137.905 132.437C137.905 131.345 137.595 130.445 136.975 129.735C136.355 129.042 135.55 128.695 134.56 128.695C133.626 128.695 132.845 129.046 132.217 129.747C131.597 130.457 131.287 131.333 131.287 132.377ZM186.251 135.103C185.648 134.402 185.346 133.493 185.346 132.377C185.346 131.333 185.656 130.457 186.276 129.747C186.903 129.046 187.684 128.695 188.618 128.695C189.608 128.695 190.414 129.042 191.033 129.735C191.653 130.445 191.963 131.345 191.963 132.437C191.963 133.529 191.653 134.43 191.033 135.139C190.414 135.824 189.6 136.167 188.594 136.167C187.652 136.167 186.871 135.812 186.251 135.103ZM144.514 126.592H145.992C146.334 126.592 146.612 126.869 146.612 127.21V127.668C147.135 127.126 147.582 126.76 147.952 126.568C148.346 126.369 148.842 126.27 149.437 126.27C150.766 126.27 151.816 126.843 152.589 127.991C153.442 126.843 154.598 126.27 156.055 126.27C158.704 126.27 160.028 127.86 160.028 131.039V137.618C160.028 137.96 159.751 138.236 159.409 138.236H157.918C157.576 138.236 157.299 137.96 157.299 137.618V131.769C157.299 130.653 157.162 129.864 156.888 129.402C156.606 128.931 156.143 128.696 155.499 128.696C154.751 128.696 154.205 128.975 153.863 129.533C153.521 130.091 153.35 130.988 153.35 132.223V137.618C153.35 137.96 153.073 138.236 152.731 138.236H151.24C150.898 138.236 150.621 137.96 150.621 137.618V131.805C150.621 129.732 150.017 128.696 148.809 128.696C148.045 128.696 147.487 128.979 147.137 129.545C146.787 130.111 146.612 131.004 146.612 132.223V137.618C146.612 137.96 146.334 138.236 145.992 138.236H144.514C144.172 138.236 143.895 137.96 143.895 137.618V127.21C143.895 126.869 144.172 126.592 144.514 126.592ZM165.555 126.592H164.076C163.734 126.592 163.457 126.869 163.457 127.21V137.618C163.457 137.96 163.734 138.236 164.076 138.236H165.555C165.897 138.236 166.174 137.96 166.174 137.618V132.223C166.174 131.004 166.349 130.111 166.699 129.545C167.05 128.979 167.607 128.696 168.372 128.696C169.579 128.696 170.183 129.732 170.183 131.805V137.618C170.183 137.96 170.461 138.236 170.803 138.236H172.293C172.635 138.236 172.912 137.96 172.912 137.618V132.223C172.912 130.988 173.083 130.091 173.426 129.533C173.768 128.975 174.313 128.696 175.062 128.696C175.706 128.696 176.169 128.931 176.451 129.402C176.724 129.864 176.861 130.653 176.861 131.769V137.618C176.861 137.96 177.138 138.236 177.48 138.236H178.971C179.313 138.236 179.59 137.96 179.59 137.618V131.039C179.59 127.86 178.266 126.27 175.617 126.27C174.16 126.27 173.005 126.843 172.152 127.991C171.379 126.843 170.328 126.27 169 126.27C168.404 126.27 167.909 126.369 167.515 126.568C167.144 126.76 166.697 127.126 166.174 127.668V127.21C166.174 126.869 165.897 126.592 165.555 126.592Z" fill="#B3C1D6"/>
</svg>
