<svg width="125" height="35" viewBox="0 0 125 35" fill="none" xmlns="http://www.w3.org/2000/svg">
<path d="M34.6631 34.5767L34.6631 0L0.000431061 0L0.000431061 34.5767L34.6631 34.5767Z" fill="#ED2127"/>
<path d="M47.4385 0.238281H50.1756V15.2578H47.4385V8.85373H44.3455V15.2578H41.6084V0.238281H44.3455V6.76281H47.4385V0.238281Z" fill="#001712"/>
<path d="M59.2235 0.238281H61.9606V12.9042C61.9606 14.4751 61.0957 15.2633 59.3659 15.2633H56.4591C54.7292 15.2633 53.8643 14.4751 53.8643 12.9042V0.238281H56.6014V12.521C56.6014 12.7728 56.6507 12.948 56.7437 13.0301C56.8368 13.1177 57.012 13.1615 57.2692 13.1615H58.5338C58.802 13.1615 58.9881 13.1177 59.0812 13.0301C59.1743 12.9425 59.2235 12.7728 59.2235 12.521V0.238281Z" fill="#001712"/>
<path d="M71.4595 0.238281H73.9612V15.2578H71.3884L68.175 5.31231V15.2633H65.6514V0.238281H68.2954L71.4595 10.047V0.238281Z" fill="#001712"/>
<path d="M85.555 4.858H82.7906V2.88203C82.7906 2.63025 82.7413 2.45509 82.6482 2.37299C82.5552 2.28541 82.38 2.24162 82.1227 2.24162H81.006C80.7542 2.24162 80.579 2.28541 80.4805 2.37299C80.3874 2.46056 80.3381 2.63025 80.3381 2.88203V12.6415C80.3381 12.8932 80.3874 13.0684 80.4805 13.1505C80.5735 13.2381 80.7487 13.2819 81.006 13.2819H82.1227C82.3745 13.2819 82.5497 13.2381 82.6482 13.1505C82.7413 13.0629 82.7906 12.8932 82.7906 12.6415V9.30804H81.6027V7.38133H85.555V12.9261C85.555 14.497 84.6901 15.2852 82.9603 15.2852H80.1739C78.4441 15.2852 77.5791 14.497 77.5791 12.9261V2.5974C77.5791 1.02648 78.4441 0.238281 80.1739 0.238281H82.9603C84.6901 0.238281 85.555 1.02648 85.555 2.5974V4.858Z" fill="#001712"/>
<path d="M95.1995 15.2618L94.6302 12.1418H91.3457L90.8201 15.2618H88.083L91.1048 0.242188H94.7944L97.9585 15.2618H95.1995ZM91.696 10.0673H94.2415L92.9332 2.88046L91.696 10.0673Z" fill="#001712"/>
<path d="M103.148 15.2633H100.718V0.238281H103.718L106.241 9.16572L108.765 0.238281H111.765V15.2578H109.362V4.71569L107.363 12.001H105.152L103.154 4.73758V15.2633H103.148Z" fill="#001712"/>
<path d="M121.674 15.2618L121.105 12.1418H117.82L117.295 15.2618H114.558L117.579 0.242188H121.269L124.433 15.2618H121.674ZM118.176 10.0673H120.722L119.413 2.88046L118.176 10.0673Z" fill="#001712"/>
<path d="M49.4632 23.9322H46.6988V21.9563C46.6988 21.7045 46.6495 21.5293 46.5564 21.4472C46.4634 21.3596 46.2882 21.3158 46.0309 21.3158H44.9142C44.6624 21.3158 44.4872 21.3596 44.3887 21.4472C44.2956 21.5348 44.2463 21.7045 44.2463 21.9563V31.7157C44.2463 31.9675 44.2956 32.1426 44.3887 32.2247C44.4817 32.3123 44.6569 32.3561 44.9142 32.3561H46.0309C46.2827 32.3561 46.4579 32.3123 46.5564 32.2247C46.6495 32.1372 46.6988 31.9675 46.6988 31.7157V28.3823H45.5109V26.4556H49.4632V32.0003C49.4632 33.5712 48.5983 34.3594 46.8685 34.3594H44.0821C42.3523 34.3594 41.4873 33.5712 41.4873 32.0003V21.6716C41.4873 20.1007 42.3523 19.3125 44.0821 19.3125H46.8685C48.5983 19.3125 49.4632 20.1007 49.4632 21.6716V23.9322Z" fill="#001712"/>
<path d="M59.1038 34.3399L58.5345 31.2199H55.25L54.7244 34.3399H51.9873L55.0091 19.3203H58.6987L61.8628 34.3399H59.1038ZM55.6058 29.1454H58.1513L56.843 21.9586L55.6058 29.1454Z" fill="#001712"/>
<path d="M67.0585 34.3375H64.628V19.3125H67.6278L70.1514 28.2399L72.675 19.3125H75.6749V34.3321H73.2717V23.7899L71.2736 31.0753H69.0621L67.064 23.8118V34.3375H67.0585Z" fill="#001712"/>
<path d="M82.1776 32.2412H86.7486V34.3375H79.4131V19.3125H86.557V21.4089H82.1776V25.5743H85.8672V27.6926H82.1776V32.2412Z" fill="#001712"/>
<path d="M94.5111 31.5968V28.3838C94.5111 28.132 94.4619 27.9569 94.3688 27.8693C94.2757 27.7817 94.1006 27.7379 93.8433 27.7379H91.9163C90.2796 27.7379 89.4639 26.9443 89.4639 25.3569V21.6677C89.4639 20.0968 90.3233 19.3086 92.0368 19.3086H94.6534C96.3669 19.3086 97.2263 20.0968 97.2263 21.6677V23.7641H94.4619V22.0509C94.4619 21.7991 94.4126 21.6239 94.3195 21.5418C94.2265 21.4542 94.0513 21.4105 93.794 21.4105H92.8907C92.6225 21.4105 92.4364 21.4542 92.3433 21.5418C92.2503 21.6294 92.201 21.7991 92.201 22.0509V25.0723C92.201 25.3241 92.2503 25.4992 92.3433 25.5868C92.4364 25.6744 92.6225 25.7182 92.8907 25.7182H94.7739C96.438 25.7182 97.2756 26.4954 97.2756 28.0499V31.98C97.2756 33.5509 96.4107 34.3391 94.6808 34.3391H92.1079C90.3781 34.3391 89.5132 33.5509 89.5132 31.98V29.911H92.2503V31.6023C92.2503 31.8541 92.2995 32.0292 92.3926 32.1114C92.4857 32.1989 92.6718 32.2427 92.94 32.2427H93.8433C94.0951 32.2427 94.2703 32.1989 94.3688 32.1114C94.4619 32.0238 94.5111 31.8541 94.5111 31.5968Z" fill="#001712"/>
<path d="M20.7351 6.78906V13.8391H13.9142V6.78906H6.96194V27.7092H13.9142V20.7905H20.7351V34.6169H27.6928V6.78906H20.7351Z" fill="white"/>
</svg>
