<svg width="260" height="260" viewBox="0 0 260 260" fill="none" xmlns="http://www.w3.org/2000/svg">
<rect x="0.5" y="0.5" width="259" height="259" fill="white" stroke="#EEEEEE"/>
<rect x="35" y="90" width="189" height="81" fill="white"/>
<path d="M102.445 147.577L102.445 113L67.7826 113L67.7826 147.577L102.445 147.577Z" fill="#B3C1D6"/>
<path d="M115.221 113.238H117.958V128.258H115.221V121.854H112.128V128.258H109.391V113.238H112.128V119.763H115.221V113.238Z" fill="#B3C1D6"/>
<path d="M127.006 113.238H129.743V125.904C129.743 127.475 128.878 128.263 127.148 128.263H124.241C122.511 128.263 121.646 127.475 121.646 125.904V113.238H124.384V125.521C124.384 125.773 124.433 125.948 124.526 126.03C124.619 126.118 124.794 126.161 125.051 126.161H126.316C126.584 126.161 126.77 126.118 126.863 126.03C126.956 125.943 127.006 125.773 127.006 125.521V113.238Z" fill="#B3C1D6"/>
<path d="M139.242 113.238H141.743V128.258H139.171L135.957 118.312V128.263H133.434V113.238H136.078L139.242 123.047V113.238Z" fill="#B3C1D6"/>
<path d="M153.337 117.858H150.573V115.882C150.573 115.63 150.524 115.455 150.43 115.373C150.337 115.285 150.162 115.242 149.905 115.242H148.788C148.536 115.242 148.361 115.285 148.263 115.373C148.17 115.461 148.12 115.63 148.12 115.882V125.641C148.12 125.893 148.17 126.068 148.263 126.151C148.356 126.238 148.531 126.282 148.788 126.282H149.905C150.157 126.282 150.332 126.238 150.43 126.151C150.524 126.063 150.573 125.893 150.573 125.641V122.308H149.385V120.381H153.337V125.926C153.337 127.497 152.472 128.285 150.742 128.285H147.956C146.226 128.285 145.361 127.497 145.361 125.926V115.597C145.361 114.026 146.226 113.238 147.956 113.238H150.742C152.472 113.238 153.337 114.026 153.337 115.597V117.858Z" fill="#B3C1D6"/>
<path d="M162.982 128.262L162.412 125.142H159.128L158.602 128.262H155.865L158.887 113.242H162.577L165.741 128.262H162.982ZM159.478 123.067H162.024L160.715 115.88L159.478 123.067Z" fill="#B3C1D6"/>
<path d="M170.931 128.263H168.5V113.238H171.5L174.023 122.166L176.547 113.238H179.547V128.258H177.144V117.716L175.146 125.001H172.934L170.936 117.738V128.263H170.931Z" fill="#B3C1D6"/>
<path d="M189.456 128.262L188.887 125.142H185.602L185.077 128.262H182.34L185.362 113.242H189.051L192.215 128.262H189.456ZM185.958 123.067H188.504L187.195 115.88L185.958 123.067Z" fill="#B3C1D6"/>
<path d="M117.245 136.932H114.481V134.956C114.481 134.704 114.432 134.529 114.339 134.447C114.246 134.36 114.07 134.316 113.813 134.316H112.696C112.445 134.316 112.269 134.36 112.171 134.447C112.078 134.535 112.029 134.704 112.029 134.956V144.716C112.029 144.967 112.078 145.143 112.171 145.225C112.264 145.312 112.439 145.356 112.696 145.356H113.813C114.065 145.356 114.24 145.312 114.339 145.225C114.432 145.137 114.481 144.967 114.481 144.716V141.382H113.293V139.456H117.245V145C117.245 146.571 116.381 147.359 114.651 147.359H111.864C110.134 147.359 109.27 146.571 109.27 145V134.672C109.27 133.101 110.134 132.312 111.864 132.312H114.651C116.381 132.312 117.245 133.101 117.245 134.672V136.932Z" fill="#B3C1D6"/>
<path d="M126.886 147.34L126.317 144.22H123.032L122.507 147.34H119.77L122.791 132.32H126.481L129.645 147.34H126.886ZM123.388 142.145H125.933L124.625 134.959L123.388 142.145Z" fill="#B3C1D6"/>
<path d="M134.841 147.338H132.41V132.312H135.41L137.934 141.24L140.457 132.312H143.457V147.332H141.054V136.79L139.056 144.075H136.844L134.846 136.812V147.338H134.841Z" fill="#B3C1D6"/>
<path d="M149.96 145.241H154.531V147.338H147.195V132.312H154.339V134.409H149.96V138.574H153.649V140.693H149.96V145.241Z" fill="#B3C1D6"/>
<path d="M162.293 144.597V141.384C162.293 141.132 162.244 140.957 162.151 140.869C162.058 140.782 161.883 140.738 161.625 140.738H159.699C158.062 140.738 157.246 139.944 157.246 138.357V134.668C157.246 133.097 158.106 132.309 159.819 132.309H162.436C164.149 132.309 165.009 133.097 165.009 134.668V136.764H162.244V135.051C162.244 134.799 162.195 134.624 162.102 134.542C162.009 134.454 161.833 134.41 161.576 134.41H160.673C160.405 134.41 160.219 134.454 160.126 134.542C160.032 134.629 159.983 134.799 159.983 135.051V138.072C159.983 138.324 160.032 138.499 160.126 138.587C160.219 138.674 160.405 138.718 160.673 138.718H162.556C164.22 138.718 165.058 139.495 165.058 141.05V144.98C165.058 146.551 164.193 147.339 162.463 147.339H159.89C158.16 147.339 157.295 146.551 157.295 144.98V142.911H160.032V144.602C160.032 144.854 160.082 145.029 160.175 145.111C160.268 145.199 160.454 145.243 160.722 145.243H161.625C161.877 145.243 162.052 145.199 162.151 145.111C162.244 145.024 162.293 144.854 162.293 144.597Z" fill="#B3C1D6"/>
<path d="M88.5172 119.789V126.839H81.6964V119.789H74.7441V140.709H81.6964V133.791H88.5172V147.617H95.475V119.789H88.5172Z" fill="white"/>
</svg>
