<svg width="24" height="10" viewBox="0 0 24 10" fill="none" xmlns="http://www.w3.org/2000/svg">
<path d="M23.1667 5.75C23.5809 5.75 23.9167 5.41421 23.9167 5C23.9167 4.58579 23.5809 4.25 23.1667 4.25V5.75ZM1 5L0.46967 4.46967C0.176777 4.76256 0.176777 5.23744 0.46967 5.53033L1 5ZM5.53033 1.53033C5.82322 1.23744 5.82322 0.762563 5.53033 0.46967C5.23744 0.176777 4.76256 0.176777 4.46967 0.46967L5.53033 1.53033ZM4.46967 9.53033C4.76256 9.82322 5.23744 9.82322 5.53033 9.53033C5.82322 9.23744 5.82322 8.76256 5.53033 8.46967L4.46967 9.53033ZM23.1667 4.25H1V5.75H23.1667V4.25ZM1.53033 5.53033L5.53033 1.53033L4.46967 0.46967L0.46967 4.46967L1.53033 5.53033ZM0.46967 5.53033L4.46967 9.53033L5.53033 8.46967L1.53033 4.46967L0.46967 5.53033Z" fill="#181F3F" fill-opacity="0.3"/>
</svg>
