<svg width="120" height="120" viewBox="0 0 120 120" fill="none" xmlns="http://www.w3.org/2000/svg">
<circle cx="60" cy="60" r="60" fill="#7534FF"/>
<path d="M68.8932 61.8667C68.5315 64.1403 65.6894 66.569 63.4674 66.6207C63.3124 66.6207 63.1574 66.6723 63.0541 66.7757C62.9507 66.8274 62.8474 66.879 62.7957 67.0341C62.0206 68.4809 62.434 69.6177 63.7258 70.5479C65.2244 71.633 67.6014 70.5479 68.7899 69.5661C71.7869 67.0857 74.8357 62.7969 74.6807 58.7146C75.1974 55.9758 75.0941 53.0304 74.319 50.6018C73.8022 49.0515 72.3037 48.2764 70.7535 48.1731C69.2032 48.0696 65.9995 47.6047 64.6043 48.5347C63.2091 49.4649 63.1057 51.2735 62.9507 52.8236C62.7957 54.5289 62.3306 57.7327 63.7775 59.0763C65.2244 60.3681 69.3583 58.9729 68.8932 61.8667Z" fill="white"/>
<path d="M51.8414 61.8667C51.4797 64.1403 48.6377 66.569 46.4157 66.6207C46.2607 66.6207 46.1056 66.6723 46.0023 66.7757C45.8989 66.8274 45.7956 66.879 45.7438 67.0341C44.9687 68.4809 45.3821 69.6177 46.674 70.5479C48.1725 71.633 50.5495 70.5479 51.7381 69.5661C54.7352 67.0857 57.7839 62.7968 57.6289 58.7146C58.1457 55.9758 58.0423 53.0304 57.2673 50.6018C56.7505 49.0515 55.252 48.2764 53.7017 48.1731C52.1515 48.0696 48.9477 47.6047 47.5525 48.5347C46.1574 49.4649 46.054 51.2735 45.8989 52.8236C45.7439 54.5289 45.2789 57.7327 46.7257 59.0763C48.1726 60.3681 52.3582 58.9729 51.8414 61.8667Z" fill="white"/>
</svg>
