<svg width="91" height="34" viewBox="0 0 91 34" fill="none" xmlns="http://www.w3.org/2000/svg">
<path d="M1.00034 17.75C0.586121 17.75 0.250336 17.4142 0.250336 17C0.250336 16.5858 0.586121 16.25 1.00034 16.25V17.75ZM89.667 17L90.1973 16.4697C90.4902 16.7626 90.4902 17.2374 90.1973 17.5303L89.667 17ZM73.1367 1.53033C72.8438 1.23744 72.8438 0.762563 73.1367 0.46967C73.4296 0.176777 73.9044 0.176777 74.1973 0.46967L73.1367 1.53033ZM74.1973 33.5303C73.9044 33.8232 73.4296 33.8232 73.1367 33.5303C72.8438 33.2374 72.8438 32.7626 73.1367 32.4697L74.1973 33.5303ZM1.00034 16.25H89.667V17.75H1.00034V16.25ZM89.1367 17.5303L73.1367 1.53033L74.1973 0.46967L90.1973 16.4697L89.1367 17.5303ZM90.1973 17.5303L74.1973 33.5303L73.1367 32.4697L89.1367 16.4697L90.1973 17.5303Z" fill="#181F3F"/>
</svg>
