<svg width="260" height="259" viewBox="0 0 260 259" fill="none" xmlns="http://www.w3.org/2000/svg">
<rect x="0.5" y="-0.5" width="259" height="259" fill="white" stroke="#EEEEEE"/>
<rect x="35" y="89" width="189" height="81" fill="white"/>
<path fill-rule="evenodd" clip-rule="evenodd" d="M90.5272 125.971V121.535H77.4336V125.971H81.2818V140.051H86.6794V125.971H90.5272ZM96.7903 133.733C96.7903 131.734 97.6877 130.735 99.4824 130.735C99.8265 130.741 100.169 130.786 100.502 130.87V126.054C100.24 126.023 99.9771 126.005 99.7135 126C97.828 126 96.627 127.036 96.1105 129.107V126.258H91.5977V140.055H96.7917V133.733H96.7903ZM111.067 126.256V134.531C111.098 135.031 110.944 135.525 110.632 135.922C110.353 136.247 109.937 136.429 109.503 136.417C109.172 136.46 108.841 136.335 108.626 136.085C108.447 135.729 108.369 135.333 108.402 134.938V126.256H102.977V136.118C102.977 137.475 103.337 138.517 104.057 139.245C104.778 139.974 105.796 140.338 107.11 140.337C109.24 140.337 110.672 139.487 111.406 137.787V140.051H116.424V126.254H111.067V126.256ZM126.826 136.798C126.01 136.798 125.457 136.588 125.167 136.168C124.833 135.578 124.673 134.908 124.705 134.234H133.965C133.973 133.9 133.978 133.638 133.978 133.447C133.978 131.141 133.296 129.319 131.932 127.98C130.568 126.642 128.78 125.973 126.568 125.973C124.284 125.973 122.457 126.683 121.089 128.102C119.725 129.508 118.987 131.387 119.035 133.325C118.989 135.203 119.742 137.014 121.116 138.324C122.503 139.667 124.361 140.339 126.691 140.339C128.785 140.339 130.445 139.862 131.673 138.908C132.834 138.057 133.646 136.827 133.964 135.441L128.906 135.102C128.698 136.233 128.004 136.798 126.826 136.798L126.826 136.798ZM124.693 131.522C124.693 129.948 125.335 129.161 126.617 129.161C127.117 129.146 127.604 129.318 127.979 129.643C128.345 129.964 128.532 130.59 128.541 131.522H124.693ZM148.354 128.957H142.303V125.946H150.176V121.535H136.756V140.053H142.303V133.121H148.354V128.956V128.957ZM164.846 137.369V131.861C164.846 130.368 164.753 129.36 164.567 128.835C164.34 128.254 163.963 127.74 163.472 127.343C162.831 126.826 162.07 126.47 161.256 126.305C160.249 126.076 159.217 125.964 158.183 125.973C154.077 125.973 151.67 127.416 150.963 130.301L155.912 130.761C156.056 129.757 156.754 129.255 158.006 129.255C158.433 129.227 158.859 129.331 159.223 129.553C159.499 129.753 159.637 130.155 159.637 130.761V131.073C156.256 131.254 153.902 131.794 152.574 132.694C151.246 133.594 150.582 134.772 150.582 136.228C150.581 137.303 151.019 138.334 151.799 139.09C152.61 139.923 153.831 140.339 155.463 140.339C157.448 140.339 158.93 139.601 159.909 138.127C159.904 138.774 159.968 139.42 160.1 140.053H165.266C164.965 139.189 164.823 138.28 164.845 137.368L164.846 137.369ZM159.637 134.262C159.637 135.438 159.433 136.198 159.026 136.541C158.614 136.887 158.086 137.07 157.544 137.057C156.629 137.057 156.172 136.641 156.172 135.809C156.172 134.579 157.327 133.842 159.638 133.598V134.262H159.637ZM181.625 131.221C181.625 129.712 181.475 128.651 181.176 128.04C180.851 127.403 180.33 126.881 179.687 126.548C178.903 126.142 178.024 125.943 177.138 125.971C175.225 125.971 173.898 126.717 173.154 128.21V126.256H168.123V140.053H173.547V131.764C173.547 130.39 174.041 129.702 175.029 129.702C175.337 129.692 175.636 129.799 175.865 130.001C176.087 130.2 176.198 130.657 176.198 131.371V140.053H181.624V131.221H181.625Z" fill="#B3C1D6"/>
<path fill-rule="evenodd" clip-rule="evenodd" d="M64.8146 119.779C64.8146 117.666 64.8063 115.552 64.8178 113.438C64.8049 112.262 65.2648 111.13 66.0942 110.297C66.9236 109.463 68.0529 108.998 69.2281 109.007C73.0269 108.998 76.826 108.998 80.6252 109.007C81.9452 109.007 82.8954 109.877 82.8954 111.07C82.8954 112.262 81.956 113.178 80.6523 113.187C78.3309 113.204 76.0092 113.19 73.6875 113.19C72.3978 113.19 71.107 113.218 69.8188 113.179C69.2271 113.161 69.0091 113.294 69.0141 113.946C69.0455 118.054 69.0375 122.162 69.0253 126.27C69.0202 127.985 67.4527 129.016 65.9692 128.279C65.2074 127.907 64.7492 127.108 64.8124 126.262C64.8158 124.101 64.8165 121.94 64.8146 119.779ZM189.239 145.533V144.618C189.239 140.579 189.24 136.539 189.241 132.5C189.203 131.682 189.643 130.917 190.368 130.537C191.055 130.131 191.92 130.184 192.552 130.671C193.131 131.056 193.471 131.712 193.452 132.408C193.459 136.752 193.479 141.095 193.445 145.439C193.409 147.762 191.55 149.644 189.229 149.706C185.314 149.763 181.397 149.737 177.482 149.718C176.718 149.727 176.01 149.318 175.635 148.652C175.261 147.985 175.28 147.167 175.684 146.519C176.089 145.87 176.815 145.494 177.577 145.538C181.142 145.526 184.706 145.534 188.27 145.533H189.239V145.533Z" fill="#B3C1D6"/>
</svg>
