<svg width="260" height="259" viewBox="0 0 260 259" fill="none" xmlns="http://www.w3.org/2000/svg">
<rect x="0.5" y="-0.5" width="259" height="259" fill="white" stroke="#EEEEEE"/>
<rect x="35" y="89" width="189" height="81" fill="white"/>
<path fill-rule="evenodd" clip-rule="evenodd" d="M100.351 128.233C99.1603 126.063 96.6929 125.451 94.1404 125.544C94.7599 124.225 95.0911 122.789 95.1118 121.332C94.9758 118.175 93.1623 115.334 90.3613 113.89C85.5542 111.4 80.1727 114.495 78.6554 118.693C77.1452 122.036 79.1021 129.022 85.2138 129.99C86.1143 130.196 88.922 130.047 89.468 129.485C89.1527 130.207 88.5379 131.518 87.9625 132.746C87.5284 133.671 87.1168 134.549 86.8729 135.091C86.8141 135.221 86.7552 135.352 86.6964 135.483C86.1878 136.613 85.6774 137.746 85.15 138.868L83.4696 142.354L82.3565 139.658C80.7115 135.65 79.0572 131.648 77.3933 127.649C76.5378 125.581 75.6751 123.521 74.8054 121.467C74.3463 120.183 73.2851 119.208 71.9693 118.863C70.557 118.54 69.0808 119.006 68.1069 120.082C67.133 121.158 66.8126 122.677 67.2685 124.057C67.5817 125.027 67.9534 125.977 68.3817 126.902C70.7876 132.727 73.1983 138.548 75.6137 144.368C76.1127 145.888 77.5007 146.938 79.095 147C80.8465 146.978 82.4298 145.949 83.1648 144.354C84.2027 142.412 85.1888 140.517 86.1708 138.629C87.4561 136.157 88.7345 133.7 90.1132 131.171C90.2479 130.929 90.6875 130.324 90.9214 130.004C91.0207 129.869 91.1271 129.734 91.2405 129.606C92.3891 128.275 93.3818 127.251 95.9342 127.094C96.5958 127.097 97.2566 127.142 97.9124 127.23C99.2004 127.371 100.288 128.252 100.699 129.485C100.694 129.044 100.574 128.612 100.351 128.233ZM90.6024 126.091C90.4606 126.411 88.9787 127.429 87.1495 127.23C86.1665 127.132 85.2246 126.784 84.4126 126.219C82.6884 124.979 82.0227 122.723 82.7961 120.741C83.5428 118.71 85.6358 117.51 87.7592 117.896C89.7706 118.307 91.2681 120.004 91.4319 122.058C91.4915 123.45 91.2065 124.836 90.6024 126.091Z" fill="#B3C1D6"/>
<path d="M55.8464 123.527C55.6918 122.936 55.6918 122.314 55.8464 121.724C56.1545 120.25 57.2341 119.07 58.6545 118.654C60.5649 118.067 62.6014 119.046 63.3722 120.922C65.5485 125.931 71.4035 140.436 71.4035 140.436C72.2369 142.363 71.7835 144.616 70.2732 146.053C69.3723 146.86 68.1459 147.177 66.9765 146.905C65.8072 146.633 64.8372 145.805 64.3691 144.679C63.7724 143.427 63.295 142.118 62.7685 140.829C60.6109 135.577 58.4603 130.315 56.3168 125.044C56.1294 124.549 55.9724 124.042 55.8464 123.527Z" fill="#B3C1D6"/>
<path d="M108.928 133.559C109.477 135.518 110.64 136.175 112.248 136.175C113.843 136.175 114.993 135.228 115.437 133.559L117.385 126.172H117.581L119.476 133.375C119.986 135.334 121.123 136.175 122.848 136.175C124.482 136.175 125.528 135.307 126.011 133.559L129.201 121.939C129.305 121.585 129.384 120.914 129.384 120.441C129.384 118.982 128.325 117.97 126.796 117.97C125.319 117.97 124.43 118.903 124.038 120.901L122.417 128.985H122.155L120.208 120.783C119.737 118.811 118.914 117.97 117.463 117.97C116.012 117.97 115.241 118.772 114.757 120.783L112.81 128.985H112.562L110.797 120.901C110.353 118.864 109.529 117.97 108.078 117.97C106.523 117.97 105.451 118.995 105.451 120.494C105.451 120.954 105.556 121.65 105.752 122.334L108.928 133.559Z" fill="#B3C1D6"/>
<path d="M136.703 121.479C132.285 121.479 129.514 124.174 129.514 128.446V129.379C129.514 133.875 132.285 136.438 136.703 136.438C141.095 136.438 143.853 133.875 143.853 129.353V128.407C143.853 124.174 141.095 121.479 136.703 121.479ZM136.69 125.318C137.788 125.318 138.35 126.33 138.35 128.301V129.603C138.35 131.535 137.788 132.6 136.69 132.6C135.618 132.6 135.017 131.535 135.017 129.603V128.301C135.017 126.33 135.618 125.318 136.69 125.318Z" fill="#B3C1D6"/>
<path d="M146.924 132.442C147.552 134.952 148.78 136.175 150.636 136.175C152.636 136.175 153.76 135.071 154.322 132.442L155.446 127.237H155.656L156.806 132.442C157.381 135.071 158.505 136.175 160.492 136.175C162.309 136.175 163.472 135.031 164.204 132.442L166.204 125.41C166.334 124.936 166.426 124.45 166.426 124.187C166.426 122.768 165.406 121.769 163.772 121.769C162.439 121.769 161.524 122.676 161.276 124.227L160.165 131.193H159.93L158.505 124.213C158.217 122.754 157.133 121.769 155.538 121.769C153.969 121.769 152.976 122.702 152.675 124.213L151.251 131.193H151.016L150.009 124.108C149.8 122.597 148.937 121.769 147.578 121.769C145.996 121.769 144.964 122.741 144.964 124.187C144.964 124.411 145.003 124.647 145.134 125.239L146.924 132.442Z" fill="#B3C1D6"/>
<path d="M167.654 133.27C167.654 134.256 168.282 135.071 169.445 135.636C170.504 136.149 171.968 136.438 173.667 136.438C177.928 136.438 180.398 134.571 180.398 131.482C180.398 129.221 179.157 127.841 176.556 127.355L174.164 126.908C173.249 126.737 172.87 126.487 172.87 126.001C172.87 125.502 173.314 125.081 174.059 125.081C174.517 125.081 175.079 125.186 176.203 125.594C177 125.883 177.575 126.001 178.006 126.001C179.091 126.001 179.849 125.383 179.849 124.358C179.849 123.359 179.157 122.57 177.876 122.071C176.856 121.677 175.628 121.479 174.36 121.479C170.399 121.479 167.824 123.425 167.824 126.317C167.824 128.564 169.092 129.918 171.968 130.496L173.523 130.812C174.856 131.088 175.353 131.443 175.353 131.969C175.353 132.481 174.843 132.784 173.955 132.784C173.236 132.784 172.582 132.586 171.314 132.061C170.491 131.719 170.033 131.561 169.484 131.561C168.399 131.561 167.654 132.258 167.654 133.27Z" fill="#B3C1D6"/>
<path d="M185.221 136.175C186.947 136.175 187.875 135.15 187.875 133.257V119.941C187.875 118.049 186.947 117.023 185.221 117.023C183.496 117.023 182.568 118.049 182.568 119.941V133.257C182.568 135.15 183.496 136.175 185.221 136.175Z" fill="#B3C1D6"/>
<path d="M189.927 138.751C189.927 139.303 190.123 139.776 190.502 140.144C191.09 140.723 192.11 141.025 193.456 141.025C197.273 141.025 199.272 139.461 200.462 135.873L203.939 125.357C204.095 124.871 204.161 124.542 204.161 124.2C204.161 122.794 203.115 121.769 201.677 121.769C200.227 121.769 199.364 122.557 199.011 124.2L197.299 132.205H197.09L195.495 124.2C195.168 122.57 194.253 121.769 192.763 121.769C191.286 121.769 190.188 122.794 190.188 124.2C190.188 124.542 190.227 124.871 190.371 125.357L193.926 136.135C193.926 136.359 193.913 136.648 193.822 136.832C193.652 137.161 193.247 137.358 192.646 137.358C192.097 137.345 191.874 137.253 191.443 137.253C190.541 137.253 189.927 137.897 189.927 138.751Z" fill="#B3C1D6"/>
<path d="M106.547 145.755V141.384C106.547 141.169 106.596 141.015 106.694 140.922C106.796 140.826 106.96 140.779 107.189 140.779H109.503C109.612 140.779 109.698 140.807 109.762 140.865C109.826 140.922 109.858 141 109.858 141.098C109.858 141.196 109.826 141.274 109.762 141.331C109.698 141.388 109.612 141.417 109.503 141.417H107.241V143.199H109.363C109.472 143.199 109.557 143.228 109.618 143.285C109.682 143.34 109.714 143.416 109.714 143.514C109.714 143.612 109.682 143.689 109.618 143.743C109.557 143.798 109.472 143.825 109.363 143.825H107.241V145.722H109.503C109.612 145.722 109.698 145.752 109.762 145.812C109.826 145.869 109.858 145.947 109.858 146.045C109.858 146.143 109.824 146.221 109.758 146.278C109.694 146.333 109.608 146.36 109.499 146.36H107.189C106.96 146.36 106.796 146.314 106.694 146.221C106.596 146.126 106.547 145.97 106.547 145.755Z" fill="#B3C1D6"/>
<path d="M112.79 145.457L114.226 141.077C114.3 140.837 114.425 140.717 114.601 140.717C114.702 140.717 114.785 140.749 114.852 140.811C114.921 140.871 114.956 140.95 114.956 141.049C114.956 141.125 114.936 141.227 114.896 141.355L113.276 145.923C113.215 146.094 113.146 146.217 113.069 146.291C112.994 146.364 112.896 146.401 112.774 146.401C112.649 146.401 112.548 146.364 112.47 146.291C112.393 146.214 112.324 146.092 112.263 145.923L110.648 141.355C110.605 141.219 110.584 141.117 110.584 141.049C110.584 140.95 110.618 140.871 110.687 140.811C110.757 140.749 110.843 140.717 110.947 140.717C111.037 140.717 111.112 140.746 111.17 140.803C111.229 140.861 111.278 140.952 111.318 141.077L112.758 145.457H112.79Z" fill="#B3C1D6"/>
<path d="M115.929 145.755V141.384C115.929 141.169 115.978 141.015 116.077 140.922C116.178 140.826 116.342 140.779 116.571 140.779H118.885C118.994 140.779 119.08 140.807 119.144 140.865C119.208 140.922 119.24 141 119.24 141.098C119.24 141.196 119.208 141.274 119.144 141.331C119.08 141.388 118.994 141.417 118.885 141.417H116.623V143.199H118.745C118.854 143.199 118.939 143.228 119 143.285C119.064 143.34 119.096 143.416 119.096 143.514C119.096 143.612 119.064 143.689 119 143.743C118.939 143.798 118.854 143.825 118.745 143.825H116.623V145.722H118.885C118.994 145.722 119.08 145.752 119.144 145.812C119.208 145.869 119.24 145.947 119.24 146.045C119.24 146.143 119.207 146.221 119.14 146.278C119.076 146.333 118.99 146.36 118.881 146.36H116.571C116.342 146.36 116.178 146.314 116.077 146.221C115.978 146.126 115.929 145.97 115.929 145.755Z" fill="#B3C1D6"/>
<path d="M120.995 146.009C120.995 146.131 120.966 146.228 120.907 146.299C120.849 146.367 120.766 146.401 120.66 146.401C120.553 146.401 120.471 146.367 120.413 146.299C120.354 146.228 120.325 146.131 120.325 146.009V141.208C120.325 140.895 120.456 140.738 120.72 140.738C120.815 140.738 120.898 140.771 120.967 140.836C121.039 140.901 121.121 141.008 121.214 141.155L123.707 145.138H123.743V141.13C123.743 141.008 123.773 140.912 123.831 140.844C123.89 140.773 123.972 140.738 124.078 140.738C124.185 140.738 124.267 140.773 124.326 140.844C124.387 140.915 124.417 141.01 124.417 141.13V145.935C124.417 146.246 124.29 146.401 124.035 146.401C123.933 146.401 123.848 146.375 123.779 146.323C123.713 146.269 123.634 146.169 123.544 146.025L121.027 141.997H120.995V146.009Z" fill="#B3C1D6"/>
<path d="M127.166 146.401C127.06 146.401 126.974 146.366 126.911 146.295C126.849 146.224 126.819 146.128 126.819 146.009V141.417H125.483C125.373 141.417 125.286 141.389 125.219 141.335C125.155 141.278 125.124 141.2 125.124 141.102C125.124 141.004 125.155 140.926 125.219 140.869C125.286 140.809 125.373 140.779 125.483 140.779H128.857C128.966 140.779 129.053 140.809 129.116 140.869C129.18 140.926 129.212 141.004 129.212 141.102C129.212 141.2 129.18 141.278 129.116 141.335C129.053 141.389 128.966 141.417 128.857 141.417H127.517V146.009C127.517 146.128 127.485 146.224 127.421 146.295C127.36 146.366 127.275 146.401 127.166 146.401Z" fill="#B3C1D6"/>
<path d="M136.221 146.401C136.011 146.401 135.906 146.27 135.906 146.009V142.263H135.874L134.526 145.465C134.454 145.631 134.383 145.747 134.314 145.812C134.245 145.875 134.157 145.906 134.051 145.906C133.947 145.906 133.859 145.874 133.788 145.808C133.718 145.743 133.649 145.628 133.58 145.465L132.228 142.263H132.196V146.009C132.196 146.27 132.09 146.401 131.877 146.401C131.667 146.401 131.562 146.27 131.562 146.009V141.188C131.562 141.04 131.595 140.927 131.661 140.848C131.728 140.766 131.821 140.726 131.941 140.726C132.05 140.726 132.135 140.756 132.196 140.816C132.26 140.876 132.329 140.995 132.403 141.175L134.039 145.129H134.063L135.698 141.175C135.775 140.995 135.845 140.876 135.906 140.816C135.97 140.756 136.055 140.726 136.161 140.726C136.281 140.726 136.374 140.766 136.44 140.848C136.507 140.927 136.54 141.04 136.54 141.188V146.009C136.54 146.27 136.434 146.401 136.221 146.401Z" fill="#B3C1D6"/>
<path d="M137.753 146.413C137.652 146.413 137.57 146.386 137.509 146.332C137.451 146.274 137.422 146.199 137.422 146.107C137.422 146.041 137.439 145.955 137.473 145.849L139.113 141.151C139.163 141.006 139.227 140.901 139.304 140.836C139.381 140.768 139.482 140.734 139.607 140.734C139.732 140.734 139.834 140.768 139.911 140.836C139.988 140.901 140.052 141.006 140.102 141.151L141.742 145.849C141.776 145.947 141.793 146.032 141.793 146.103C141.793 146.198 141.763 146.274 141.702 146.332C141.641 146.386 141.559 146.413 141.458 146.413C141.363 146.413 141.286 146.387 141.227 146.336C141.168 146.284 141.121 146.198 141.083 146.078L140.625 144.684H138.586L138.128 146.078C138.09 146.201 138.042 146.288 137.984 146.34C137.925 146.389 137.848 146.413 137.753 146.413ZM138.774 144.107H140.437L139.619 141.621H139.592L138.774 144.107Z" fill="#B3C1D6"/>
<path d="M143.341 146.009C143.341 146.131 143.312 146.228 143.253 146.299C143.195 146.367 143.112 146.401 143.006 146.401C142.9 146.401 142.817 146.367 142.759 146.299C142.7 146.228 142.671 146.131 142.671 146.009V141.208C142.671 140.895 142.803 140.738 143.066 140.738C143.162 140.738 143.244 140.771 143.313 140.836C143.385 140.901 143.467 141.008 143.561 141.155L146.054 145.138H146.09V141.13C146.09 141.008 146.119 140.912 146.177 140.844C146.236 140.773 146.318 140.738 146.425 140.738C146.531 140.738 146.613 140.773 146.672 140.844C146.733 140.915 146.764 141.01 146.764 141.13V145.935C146.764 146.246 146.636 146.401 146.381 146.401C146.28 146.401 146.195 146.375 146.125 146.323C146.059 146.269 145.981 146.169 145.89 146.025L143.373 141.997H143.341V146.009Z" fill="#B3C1D6"/>
<path d="M147.972 146.413C147.871 146.413 147.79 146.386 147.729 146.332C147.671 146.274 147.641 146.199 147.641 146.107C147.641 146.041 147.659 145.955 147.693 145.849L149.333 141.151C149.383 141.006 149.447 140.901 149.524 140.836C149.601 140.768 149.702 140.734 149.827 140.734C149.952 140.734 150.053 140.768 150.13 140.836C150.208 140.901 150.271 141.006 150.322 141.151L151.961 145.849C151.996 145.947 152.013 146.032 152.013 146.103C152.013 146.198 151.983 146.274 151.921 146.332C151.86 146.386 151.779 146.413 151.678 146.413C151.582 146.413 151.505 146.387 151.447 146.336C151.388 146.284 151.34 146.198 151.303 146.078L150.844 144.684H148.806L148.347 146.078C148.31 146.201 148.262 146.288 148.204 146.34C148.145 146.389 148.068 146.413 147.972 146.413ZM148.994 144.107H150.657L149.839 141.621H149.811L148.994 144.107Z" fill="#B3C1D6"/>
<path d="M152.572 144.021V143.118C152.572 142.346 152.758 141.744 153.13 141.31C153.505 140.877 154.029 140.66 154.702 140.66C155.356 140.66 155.872 140.862 156.249 141.265C156.385 141.41 156.494 141.565 156.577 141.731C156.662 141.895 156.704 142.037 156.704 142.157C156.704 142.258 156.676 142.337 156.62 142.394C156.567 142.451 156.494 142.48 156.401 142.48C156.324 142.48 156.259 142.459 156.206 142.418C156.155 142.378 156.103 142.307 156.05 142.206C155.888 141.9 155.7 141.674 155.488 141.527C155.277 141.38 155.028 141.306 154.738 141.306C154.27 141.306 153.908 141.464 153.653 141.781C153.397 142.097 153.27 142.545 153.27 143.126V144.021C153.27 144.594 153.403 145.041 153.669 145.362C153.935 145.681 154.306 145.841 154.782 145.841C155.18 145.841 155.5 145.729 155.739 145.506C155.978 145.282 156.098 144.986 156.098 144.618V144.079H155.005C154.896 144.079 154.809 144.051 154.746 143.997C154.682 143.942 154.65 143.866 154.65 143.768C154.65 143.67 154.682 143.593 154.746 143.539C154.809 143.482 154.896 143.453 155.005 143.453H156.265C156.441 143.453 156.57 143.497 156.652 143.584C156.735 143.668 156.776 143.799 156.776 143.976V144.606C156.776 145.143 156.586 145.59 156.206 145.947C155.825 146.302 155.347 146.479 154.77 146.479C154.081 146.479 153.542 146.262 153.154 145.829C152.766 145.392 152.572 144.79 152.572 144.021Z" fill="#B3C1D6"/>
<path d="M157.869 145.755V141.384C157.869 141.169 157.918 141.015 158.017 140.922C158.118 140.826 158.283 140.779 158.511 140.779H160.825C160.934 140.779 161.02 140.807 161.084 140.865C161.148 140.922 161.18 141 161.18 141.098C161.18 141.196 161.148 141.274 161.084 141.331C161.02 141.388 160.934 141.417 160.825 141.417H158.563V143.199H160.685C160.794 143.199 160.879 143.228 160.941 143.285C161.004 143.34 161.036 143.416 161.036 143.514C161.036 143.612 161.004 143.689 160.941 143.743C160.879 143.798 160.794 143.825 160.685 143.825H158.563V145.722H160.825C160.934 145.722 161.02 145.752 161.084 145.812C161.148 145.869 161.18 145.947 161.18 146.045C161.18 146.143 161.147 146.221 161.08 146.278C161.016 146.333 160.93 146.36 160.821 146.36H158.511C158.283 146.36 158.118 146.314 158.017 146.221C157.918 146.126 157.869 145.97 157.869 145.755Z" fill="#B3C1D6"/>
<path d="M166.928 146.401C166.718 146.401 166.613 146.27 166.613 146.009V142.263H166.581L165.233 145.465C165.161 145.631 165.09 145.747 165.021 145.812C164.952 145.875 164.864 145.906 164.758 145.906C164.654 145.906 164.566 145.874 164.495 145.808C164.426 145.743 164.356 145.628 164.287 145.465L162.935 142.263H162.903V146.009C162.903 146.27 162.797 146.401 162.584 146.401C162.374 146.401 162.269 146.27 162.269 146.009V141.188C162.269 141.04 162.302 140.927 162.369 140.848C162.435 140.766 162.528 140.726 162.648 140.726C162.757 140.726 162.842 140.756 162.903 140.816C162.967 140.876 163.036 140.995 163.111 141.175L164.746 145.129H164.77L166.405 141.175C166.483 140.995 166.552 140.876 166.613 140.816C166.677 140.756 166.762 140.726 166.868 140.726C166.988 140.726 167.081 140.766 167.147 140.848C167.214 140.927 167.247 141.04 167.247 141.188V146.009C167.247 146.27 167.141 146.401 166.928 146.401Z" fill="#B3C1D6"/>
<path d="M168.575 145.755V141.384C168.575 141.169 168.625 141.015 168.723 140.922C168.824 140.826 168.989 140.779 169.218 140.779H171.531C171.64 140.779 171.727 140.807 171.791 140.865C171.854 140.922 171.886 141 171.886 141.098C171.886 141.196 171.854 141.274 171.791 141.331C171.727 141.388 171.64 141.417 171.531 141.417H169.269V143.199H171.392C171.501 143.199 171.586 143.228 171.647 143.285C171.711 143.34 171.743 143.416 171.743 143.514C171.743 143.612 171.711 143.689 171.647 143.743C171.586 143.798 171.501 143.825 171.392 143.825H169.269V145.722H171.531C171.64 145.722 171.727 145.752 171.791 145.812C171.854 145.869 171.886 145.947 171.886 146.045C171.886 146.143 171.853 146.221 171.787 146.278C171.723 146.333 171.636 146.36 171.527 146.36H169.218C168.989 146.36 168.824 146.314 168.723 146.221C168.625 146.126 168.575 145.97 168.575 145.755Z" fill="#B3C1D6"/>
<path d="M173.641 146.009C173.641 146.131 173.612 146.228 173.554 146.299C173.495 146.367 173.413 146.401 173.306 146.401C173.2 146.401 173.118 146.367 173.059 146.299C173.001 146.228 172.971 146.131 172.971 146.009V141.208C172.971 140.895 173.103 140.738 173.366 140.738C173.462 140.738 173.544 140.771 173.613 140.836C173.685 140.901 173.768 141.008 173.861 141.155L176.354 145.138H176.39V141.13C176.39 141.008 176.419 140.912 176.478 140.844C176.536 140.773 176.618 140.738 176.725 140.738C176.831 140.738 176.914 140.773 176.972 140.844C177.033 140.915 177.064 141.01 177.064 141.13V145.935C177.064 146.246 176.936 146.401 176.681 146.401C176.58 146.401 176.495 146.375 176.426 146.323C176.359 146.269 176.281 146.169 176.19 146.025L173.673 141.997H173.641V146.009Z" fill="#B3C1D6"/>
<path d="M179.812 146.401C179.706 146.401 179.621 146.366 179.557 146.295C179.496 146.224 179.465 146.128 179.465 146.009V141.417H178.129C178.02 141.417 177.932 141.389 177.866 141.335C177.802 141.278 177.77 141.2 177.77 141.102C177.77 141.004 177.802 140.926 177.866 140.869C177.932 140.809 178.02 140.779 178.129 140.779H181.504C181.613 140.779 181.699 140.809 181.763 140.869C181.827 140.926 181.859 141.004 181.859 141.102C181.859 141.2 181.827 141.278 181.763 141.335C181.699 141.389 181.613 141.417 181.504 141.417H180.163V146.009C180.163 146.128 180.131 146.224 180.068 146.295C180.006 146.366 179.921 146.401 179.812 146.401Z" fill="#B3C1D6"/>
</svg>
